<svg xmlns="http://www.w3.org/2000/svg" viewBox="0 0 100 100">
  <defs>
    <clipPath id="sCircle"><circle cx="50" cy="50" r="48"/></clipPath>
    <linearGradient id="sHair" x1="0" y1="0" x2="0" y2="1">
      <stop offset="0%" stop-color="#ffaac8"/>
      <stop offset="100%" stop-color="#dd7799"/>
    </linearGradient>
  </defs>
  <circle cx="50" cy="50" r="48" fill="#3e1a2a"/>
  <g clip-path="url(#sCircle)">
    <ellipse cx="50" cy="58" rx="28" ry="32" fill="#FFE4C4"/>
    <path d="M22 54 Q24 38 36 30 Q46 26 50 28 Q54 26 64 30 Q76 38 78 54 L73 44 Q65 33 50 30 Q35 33 27 44 Z" fill="url(#sHair)"/>
    <path d="M24 54 Q30 40 36 54" fill="url(#sHair)"/>
    <path d="M34 52 Q40 36 46 52" fill="url(#sHair)"/>
    <path d="M54 52 Q60 36 66 52" fill="url(#sHair)"/>
    <path d="M64 54 Q70 40 76 54" fill="url(#sHair)"/>
    <path d="M18 48 Q12 65 8 85 Q18 72 20 58 Q21 50 20 48 Z" fill="url(#sHair)"/>
    <path d="M82 48 Q88 65 92 85 Q82 72 80 58 Q79 50 80 48 Z" fill="url(#sHair)"/>
    <circle cx="20" cy="48" r="4" fill="#ff7aaa" stroke="#fff" stroke-width="0.5"/>
    <circle cx="80" cy="48" r="4" fill="#ff7aaa" stroke="#fff" stroke-width="0.5"/>
    <g transform="translate(38, 55)"><ellipse rx="6" ry="7" fill="#fff"/><ellipse rx="4" ry="5" fill="#DD4488"/><circle cx="1.5" cy="-2" r="2" fill="#fff" opacity="0.9"/></g>
    <g transform="translate(62, 55)"><ellipse rx="6" ry="7" fill="#fff"/><ellipse rx="4" ry="5" fill="#DD4488"/><circle cx="1.5" cy="-2" r="2" fill="#fff" opacity="0.9"/></g>
    <path d="M42 70 Q50 78 58 70" fill="#fff" stroke="#E88888" stroke-width="1.5" stroke-linecap="round"/>
    <ellipse cx="33" cy="64" rx="6" ry="3" fill="#FFB6C1" opacity="0.4"/>
    <ellipse cx="67" cy="64" rx="6" ry="3" fill="#FFB6C1" opacity="0.4"/>
    <g transform="translate(74, 38) rotate(15)"><polygon points="0,-5 1.5,-1.5 5,-1.5 2.5,1 3.5,5 0,2.5 -3.5,5 -2.5,1 -5,-1.5 -1.5,-1.5" fill="#FFD700"/></g>
  </g>
  <circle cx="50" cy="50" r="48" fill="none" stroke="#ff7aaa" stroke-width="2" opacity="0.5"/>
</svg>
