<svg xmlns="http://www.w3.org/2000/svg" viewBox="0 0 100 100">
  <defs>
    <clipPath id="yCircle"><circle cx="50" cy="50" r="48"/></clipPath>
    <linearGradient id="yHair" x1="0" y1="0" x2="0" y2="1">
      <stop offset="0%" stop-color="#a8c8ff"/>
      <stop offset="100%" stop-color="#6a8acc"/>
    </linearGradient>
  </defs>
  <circle cx="50" cy="50" r="48" fill="#1a2a4e"/>
  <g clip-path="url(#yCircle)">
    <ellipse cx="50" cy="58" rx="28" ry="32" fill="#FFE4C4"/>
    <path d="M22 52 Q24 38 35 32 Q45 28 50 30 Q55 28 65 32 Q76 38 78 52 L74 44 Q66 34 50 32 Q34 34 26 44 Z" fill="url(#yHair)"/>
    <path d="M25 52 Q28 42 32 52" fill="url(#yHair)"/>
    <path d="M31 50 Q35 38 39 50" fill="url(#yHair)"/>
    <path d="M46 49 Q50 36 54 49" fill="url(#yHair)"/>
    <path d="M61 50 Q65 38 69 52" fill="url(#yHair)"/>
    <path d="M68 52 Q72 42 75 52" fill="url(#yHair)"/>
    <path d="M20 48 Q18 65 16 80 Q22 72 24 60 Q25 52 22 48 Z" fill="url(#yHair)"/>
    <path d="M80 48 Q82 65 84 80 Q78 72 76 60 Q75 52 78 48 Z" fill="url(#yHair)"/>
    <g transform="translate(38, 56)"><ellipse rx="5" ry="6" fill="#fff"/><ellipse rx="3.5" ry="4.5" fill="#4477CC"/><circle cx="1" cy="-2" r="1.5" fill="#fff" opacity="0.8"/></g>
    <g transform="translate(62, 56)"><ellipse rx="5" ry="6" fill="#fff"/><ellipse rx="3.5" ry="4.5" fill="#4477CC"/><circle cx="1" cy="-2" r="1.5" fill="#fff" opacity="0.8"/></g>
    <path d="M44 70 Q50 74 56 70" fill="none" stroke="#E88888" stroke-width="1.5" stroke-linecap="round"/>
    <ellipse cx="34" cy="65" rx="5" ry="3" fill="#FFB6C1" opacity="0.3"/>
    <ellipse cx="66" cy="65" rx="5" ry="3" fill="#FFB6C1" opacity="0.3"/>
  </g>
  <circle cx="50" cy="50" r="48" fill="none" stroke="#7aa2ff" stroke-width="2" opacity="0.5"/>
</svg>
